<?xml version="1.0" encoding="utf-8"?>
<!-- Generator: Adobe Illustrator 27.5.0, SVG Export Plug-In . SVG Version: 6.00 Build 0)  -->
<svg version="1.1" id="Layer_1" xmlns="http://www.w3.org/2000/svg" xmlns:xlink="http://www.w3.org/1999/xlink" x="0px" y="0px"
	 viewBox="-1557.467 -1606.671 4251.968 3621.293" style="enable-background:new -1557.467 -1606.671 4251.968 3621.293;"
	 xml:space="preserve">
<rect x="-1557.467" y="-1606.671" style="fill-rule:evenodd;clip-rule:evenodd;fill:#EF3333;" width="4251.968" height="3621.293"/>
<g>
	<path style="fill:#F5F5F5;" d="M1025.311-204.185c80.926-71.063,151.342-106.797,211.936-106.797
		c40.262,0,73.172,11.66,99.133,35.328c25.559,23.726,38.482,50.643,38.482,81.388c0,25.466-8.73,48.844-26.592,70.018
		c-17.862,21.232-42.042,31.848-72.885,31.848c-43.076,0-74.206-23.668-93.504-71.411c-12.923-31.5-25.903-47.452-38.137-47.452
		c-14.359,0-41.698,16.649-81.615,49.889c36.069,55.168,54.276,114.976,54.276,178.672c0,64.74-18.552,124.49-55.367,178.962
		c-36.759,54.123-81.558,92.7-133.766,115.672c-52.208,23.03-126.817,38.925-223.135,47.8
		c-82.649,7.426-132.733,20.478-150.595,38.171c-18.552,18.795-27.684,39.621-27.684,62.303c0,27.555,18.954,45.596,56.401,53.776
		c37.161,8.469,139.74,14.851,307.508,19.781c257.481,8.121,386.366,93.396,386.366,255.419
		c0,110.336-48.016,201.644-144.334,274.505c-96.319,72.513-242.031,108.943-436.392,108.943
		c-146.747,0-252.542-21.58-317.674-64.391c-65.131-43.16-97.697-93.745-97.697-151.407c0-61.201,26.592-113.178,79.49-155.294
		c52.898-42.406,132.388-75.703,238.183-99.719c-80.582-8.179-141.176-26.221-181.438-53.428
		c-40.319-27.265-60.594-64.391-60.594-111.438c0-49.541,18.896-91.25,56.401-125.244c37.448-33.936,93.504-59.751,167.768-77.792
		c-77.767-24.074-136.638-59.461-175.866-105.811c-39.228-46.35-58.814-104.36-58.814-173.335
		c0-100.474,39.573-184.647,119.063-252.925c79.49-68.278,177.589-102.214,293.895-102.214c55.31,0,105.393,7.773,149.906,23.668
		C952.483-260.745,991.711-236.381,1025.311-204.185L1025.311-204.185z M591.044,13.063c0,89.452,15.048,158.484,44.799,207.619
		c30.153,48.844,65.533,73.209,106.829,73.209c42.732,0,74.608-20.826,95.974-62.941c21.366-42.115,31.876-105.056,31.876-188.881
		c0-88.814-12.98-158.484-38.539-209.069c-25.903-50.585-59.158-76.052-99.822-76.052c-40.951,0-74.953,22.972-101.545,68.626
		C604.311-128.482,591.044-66.179,591.044,13.063L591.044,13.063z M481.745,930.67c0,47.047,23.146,88.118,69.382,123.446
		c46.58,35.038,112.056,52.731,196.485,52.731c102.234,0,187.009-23.378,254.61-70.424
		c67.601-47.046,101.545-102.562,101.545-166.606c0-51.977-26.937-90.206-81.213-114.628
		c-54.334-24.364-124.002-36.779-209.121-36.779c-100.856,0-181.437,20.188-241.687,60.505
		C511.898,819.232,481.745,869.817,481.745,930.67L481.745,930.67z"/>
	<path style="fill:#0B0C0C;" d="M338.502-764.68c-2.642,64.739-3.963,120.545-3.963,167.069l0.976,259.364
		c0,111.612,1.034,180.006,2.987,205.24c37.792-51.803,79.892-90.67,126.242-116.542c46.695-25.931,97.697-38.867,153.581-38.867
		c44.742,0,87.474,10.616,127.908,31.558c40.434,21.232,71.679,56.096,93.734,105.23c2.642,5.975,5.169,12.414,7.524,19.434h-0.919
		c6.26,18.215,11.315,38.229,15.105,60.098c2.585,15.605,4.71,32.66,6.433,51.107c1.608,19.84,2.412,40.839,2.412,63.057
		c0,83.825-10.511,146.766-31.876,188.881c-21.366,42.115-53.242,62.941-95.974,62.941c-37.62,0-70.358-20.246-98.616-60.737
		c0.172-20.942,0.23-43.276,0.23-66.944c0-150.769-7.524-249.038-22.687-295.562c-14.761-46.176-45.374-69.38-91.379-69.38
		c-38.482,0-76.331,19.898-113.492,59.403c-36.816,39.563-61.111,94.325-72.655,165.097
		C332.586,96.134,326.67,183.15,326.67,286.466c0,52.789,2.642,98.966,7.869,138.47c4.939,39.505,12.176,64.102,21.71,74.079
		c0.862,0.928,1.838,1.856,2.872,2.785c-2.297,11.254-3.446,22.972-3.446,35.154c0,12.762,1.493,24.77,4.48,36.082
		c-14.703-0.87-31.532-2.204-50.6-3.945c-32.221-3.017-60.824-4.641-85.808-4.641c-50.945,0-98.329,2.32-142.037,6.613
		c-22.055,2.32-50.658,3.307-86.153,3.307c-18.781,0-27.971-8.934-27.971-26.569c0-14.27,13.153-23.552,39.458-27.207
		c32.91-4.003,55.597-17.635,68.405-41.535c12.463-23.552,21.021-109.233,25.329-256.695c4.595-147.462,6.892-372.948,6.892-676.516
		c0-92.99-6.892-153.089-21.021-180.644c-14.187-27.903-37.85-47.162-71.047-58.126c-31.877-10.326-48.016-22.276-48.016-35.908
		c0-17.229,13.842-25.873,41.411-25.873C107.326-754.703,217.141-758.009,338.502-764.68L338.502-764.68z M870.983,331.656
		l-0.804,79.01c0,66.77,26.305,102.62,78.629,107.957c18.322,1.74,28.43,8.991,30.498,21.696
		c-27.914-3.364-57.722-5.569-89.541-6.555c-159.44-4.699-260.066-10.674-301.477-18.563c21.825-7.715,36.356-25.177,43.536-52.383
		c4.021-15.895,7.065-47.685,9.19-95.311c18.379-3.075,39.4-5.627,63.121-7.774C769.954,353.7,825.666,344.302,870.983,331.656
		L870.983,331.656z M531.197,556.678c-0.861-2.669-1.321-5.627-1.321-8.876c0-2.552,0.46-4.989,1.321-7.309V556.678z"/>
</g>
</svg>
